<svg id="Laag_1" data-name="Laag 1" xmlns="http://www.w3.org/2000/svg" viewBox="0 0 193.51 286.3"><defs><style>.cls-1{fill:#b41f21;}.cls-2{fill:#fff;}</style></defs><path class="cls-1" d="M188,0H5.47c-32.6,243.86,91.24,286.3,91.24,286.3l0,0,0,0S220.64,243.86,188,0"/><path class="cls-2" d="M144.69,105.47v.07c-.38,43.78-19,79.47-34.55,101.74l0-47.82v-.07h-5.48l0,62.61v.19l.12-.14A205.29,205.29,0,0,0,134,175.53a170.35,170.35,0,0,0,15.42-70v-.07Z"/><polygon class="cls-2" points="115.15 117.89 78.96 117.89 78.96 123.41 94.32 123.41 94.3 227.13 99.8 227.13 99.8 123.41 115.15 123.41 115.15 117.89"/><path class="cls-2" d="M84,195.94v11.34a203.3,203.3,0,0,1-22.64-41.93H82.86v-5.53H59.25A167,167,0,0,1,49.56,111H78.4v-5.52H44.65v.07a170.19,170.19,0,0,0,15.42,70,204.94,204.94,0,0,0,29.22,46.52l.12.14V195.94Z"/><path class="cls-2" d="M57.76,26.71,70.19,64.13,62,25.12ZM72.35,74.57,56.21,26l6.73-2.51,10.48,50-.12,0,.22.66Z"/><polyline class="cls-2" points="71.92 73.28 72.79 75.9 80.57 66.23 82.99 85.97 83.55 55.06 72.97 71.44"/><path class="cls-2" d="M131.49,25.07l-8.17,39,12.42-37.42ZM121.16,74.51,120,74.12l.22-.66-.11,0,10.48-50,6.73,2.51Z"/><polyline class="cls-2" points="121.56 73.31 120.69 75.93 112.91 66.27 110.48 86 109.93 55.09 120.51 71.47"/><path class="cls-2" d="M97.79,251.16l-1.33-1.31L99,247.36a197.8,197.8,0,0,0,35.9-45.93l.45-.8,7.21,3.86,4.05-7.41-13.35-6.48,4.62-10.25,13.6,5.56,3.13-8.17-13.39-5.1L144.8,162l13.7,4.49,2.48-8.21L153.76,156l.24-.86A229.78,229.78,0,0,0,162,94.56H104.48V92.7h59.34v.94A232.13,232.13,0,0,1,156,154.72l7.26,2.33-3.56,11.8L146,164.34l-2.44,7.2L157,176.67l-4.47,11.68-13.7-5.6-3.14,7,13.48,6.54L143.28,207l-7.23-3.87a199.88,199.88,0,0,1-35.77,45.56c-.93.91-1.76,1.74-2.49,2.47"/><path class="cls-2" d="M33.77,170.55a9.39,9.39,0,0,0,13.54-3.62,9,9,0,0,0-5.24-1.67,8.89,8.89,0,0,0-8.3,5.29m4.92,11.65a7.08,7.08,0,0,0,3.38,1.21A9.09,9.09,0,0,0,50.75,177a9,9,0,0,0-3.56-.73,9.87,9.87,0,0,0-8.5,5.93m4.91,11.33a8.35,8.35,0,0,0,3.59.89,9.09,9.09,0,0,0,8.61-6.21,9,9,0,0,0-3.65-.77,9.34,9.34,0,0,0-8.55,6.09m52.12,57.63c-.82-.83-1.77-1.75-2.86-2.82A195.48,195.48,0,0,1,58,204.45l-.38-.65.56-.51a9.07,9.07,0,0,0-.74-14.14,11,11,0,0,1-10.26,7.14A10.64,10.64,0,0,1,42,194.82l-.65-.36.2-.71a11.23,11.23,0,0,1,10.57-8.17,10.91,10.91,0,0,1,4.06.78,8.43,8.43,0,0,0,.06-1,9.08,9.08,0,0,0-3.87-7.43,10.94,10.94,0,0,1-10.33,7.35,8.88,8.88,0,0,1-4.41-1.52l-.58-.32-.69-.38.26-.74a11.68,11.68,0,0,1,10.54-7.9,10.88,10.88,0,0,1,3.92.73c0-.27,0-.54,0-.81a9,9,0,0,0-2.4-6.13A11,11,0,0,1,39.12,174a10.76,10.76,0,0,1-7.07-2.37l-.49-.42.21-.6a10.7,10.7,0,0,1,10.3-7.16A10.86,10.86,0,0,1,48,165.12,9.23,9.23,0,0,0,48.2,163a9.09,9.09,0,0,0-9.08-9.08l-.66,0-.77.06-.2-.75a232.79,232.79,0,0,1-7.8-59.64v-.94H89v1.86H31.56a230.45,230.45,0,0,0,7.55,57.51h0A11,11,0,0,1,50.06,163a10.81,10.81,0,0,1-.52,3.34,10.93,10.93,0,0,1,3.47,8,11.66,11.66,0,0,1-.13,1.68,11,11,0,0,1,5.25,9.34,10.83,10.83,0,0,1-.17,1.9,10.93,10.93,0,0,1,2,16.9A194,194,0,0,0,94.16,247c1.1,1.07,2,2,2.88,2.84Z"/><polygon class="cls-2" points="103.94 243.55 96.75 236.37 89.57 243.55 90.89 244.87 96.75 239 102.62 244.87 103.94 243.55"/><rect class="cls-2" x="87.96" y="80.6" width="3.72" height="26.06"/><rect class="cls-2" x="101.83" y="80.6" width="3.72" height="26.06"/><path class="cls-2" d="M163.05,91.82a1.86,1.86,0,1,0,1.86,1.85,1.85,1.85,0,0,0-1.86-1.85"/><path class="cls-2" d="M103.67,235.47a1.86,1.86,0,1,0,1.86,1.85,1.85,1.85,0,0,0-1.86-1.85"/><path class="cls-2" d="M30.45,91.82a1.86,1.86,0,1,0,1.86,1.85,1.85,1.85,0,0,0-1.86-1.85"/><path class="cls-2" d="M89.84,235.47a1.86,1.86,0,1,0,1.85,1.85,1.85,1.85,0,0,0-1.85-1.85"/><path class="cls-2" d="M96.66,248.81a1.86,1.86,0,1,0,1.85,1.85,1.85,1.85,0,0,0-1.85-1.85"/><path class="cls-2" d="M96.66,242.6a1.86,1.86,0,1,0,1.85,1.86,1.86,1.86,0,0,0-1.85-1.86"/></svg>